<svg xmlns="http://www.w3.org/2000/svg" version="1.1" xmlns:xlink="http://www.w3.org/1999/xlink" xmlns:svgjs="http://svgjs.dev/svgjs" width="1440" height="560" preserveAspectRatio="none" viewBox="0 0 1440 560">
    <g mask="url(&quot;#SvgjsMask1000&quot;)" fill="none">
        <rect width="1440" height="560" x="0" y="0" fill="rgba(255, 255, 255, 1)"></rect>
        <path d="M-79.9 378.15L-79.9 378.15" stroke="rgba(51, 51, 51, 0.15)" stroke-width="1.5"></path>
        <path d="M-79.9 378.15L-75.08 489.51" stroke="rgba(51, 51, 51, 0.15)" stroke-width="1.5"></path>
        <path d="M-79.9 378.15L69.57 410.6" stroke="rgba(51, 51, 51, 0.15)" stroke-width="1.5"></path>
        <path d="M-79.9 378.15L45.13 518.11" stroke="rgba(51, 51, 51, 0.15)" stroke-width="1.5"></path>
        <path d="M-79.9 378.15L-90.7 646.62" stroke="rgba(51, 51, 51, 0.15)" stroke-width="1.5"></path>
        <path d="M-75.08 489.51L-75.08 489.51" stroke="rgba(51, 51, 51, 0.15)" stroke-width="1.5"></path>
        <path d="M-75.08 489.51L45.13 518.11" stroke="rgba(51, 51, 51, 0.15)" stroke-width="1.5"></path>
        <path d="M-75.08 489.51L-90.7 646.62" stroke="rgba(51, 51, 51, 0.15)" stroke-width="1.5"></path>
        <path d="M-75.08 489.51L69.57 410.6" stroke="rgba(51, 51, 51, 0.15)" stroke-width="1.5"></path>
        <path d="M-75.08 489.51L49.67 681.48" stroke="rgba(51, 51, 51, 0.15)" stroke-width="1.5"></path>
        <path d="M-75.08 489.51L227 493.72" stroke="rgba(51, 51, 51, 0.15)" stroke-width="1.5"></path>
        <path d="M-90.7 646.62L-90.7 646.62" stroke="rgba(51, 51, 51, 0.15)" stroke-width="1.5"></path>
        <path d="M-90.7 646.62L49.67 681.48" stroke="rgba(51, 51, 51, 0.15)" stroke-width="1.5"></path>
        <path d="M-90.7 646.62L45.13 518.11" stroke="rgba(51, 51, 51, 0.15)" stroke-width="1.5"></path>
        <path d="M-90.7 646.62L69.57 410.6" stroke="rgba(51, 51, 51, 0.15)" stroke-width="1.5"></path>
        <path d="M-90.7 646.62L252.11 682.96" stroke="rgba(51, 51, 51, 0.15)" stroke-width="1.5"></path>
        <path d="M69.57 410.6L69.57 410.6" stroke="rgba(51, 51, 51, 0.15)" stroke-width="1.5"></path>
        <path d="M69.57 410.6L45.13 518.11" stroke="rgba(51, 51, 51, 0.15)" stroke-width="1.5"></path>
        <path d="M69.57 410.6L239.66 389.41" stroke="rgba(51, 51, 51, 0.15)" stroke-width="1.5"></path>
        <path d="M45.13 518.11L45.13 518.11" stroke="rgba(51, 51, 51, 0.15)" stroke-width="1.5"></path>
        <path d="M45.13 518.11L49.67 681.48" stroke="rgba(51, 51, 51, 0.15)" stroke-width="1.5"></path>
        <path d="M45.13 518.11L227 493.72" stroke="rgba(51, 51, 51, 0.15)" stroke-width="1.5"></path>
        <path d="M49.67 681.48L49.67 681.48" stroke="rgba(51, 51, 51, 0.15)" stroke-width="1.5"></path>
        <path d="M239.66 389.41L239.66 389.41" stroke="rgba(51, 51, 51, 0.15)" stroke-width="1.5"></path>
        <path d="M239.66 389.41L227 493.72" stroke="rgba(51, 51, 51, 0.15)" stroke-width="1.5"></path>
        <path d="M239.66 389.41L378.82 382" stroke="rgba(51, 51, 51, 0.15)" stroke-width="1.5"></path>
        <path d="M227 493.72L227 493.72" stroke="rgba(51, 51, 51, 0.15)" stroke-width="1.5"></path>
        <path d="M227 493.72L351.45 513.83" stroke="rgba(51, 51, 51, 0.15)" stroke-width="1.5"></path>
        <path d="M252.11 682.96L252.11 682.96" stroke="rgba(51, 51, 51, 0.15)" stroke-width="1.5"></path>
        <path d="M252.11 682.96L350.24 645.26" stroke="rgba(51, 51, 51, 0.15)" stroke-width="1.5"></path>
        <path d="M252.11 682.96L227 493.72" stroke="rgba(51, 51, 51, 0.15)" stroke-width="1.5"></path>
        <path d="M252.11 682.96L351.45 513.83" stroke="rgba(51, 51, 51, 0.15)" stroke-width="1.5"></path>
        <path d="M252.11 682.96L49.67 681.48" stroke="rgba(51, 51, 51, 0.15)" stroke-width="1.5"></path>
        <path d="M252.11 682.96L516.21 666.62" stroke="rgba(51, 51, 51, 0.15)" stroke-width="1.5"></path>
        <path d="M378.82 382L378.82 382" stroke="rgba(51, 51, 51, 0.15)" stroke-width="1.5"></path>
        <path d="M378.82 382L351.45 513.83" stroke="rgba(51, 51, 51, 0.15)" stroke-width="1.5"></path>
        <path d="M351.45 513.83L351.45 513.83" stroke="rgba(51, 51, 51, 0.15)" stroke-width="1.5"></path>
        <path d="M351.45 513.83L350.24 645.26" stroke="rgba(51, 51, 51, 0.15)" stroke-width="1.5"></path>
        <path d="M351.45 513.83L510.11 535.32" stroke="rgba(51, 51, 51, 0.15)" stroke-width="1.5"></path>
        <path d="M350.24 645.26L350.24 645.26" stroke="rgba(51, 51, 51, 0.15)" stroke-width="1.5"></path>
        <path d="M350.24 645.26L516.21 666.62" stroke="rgba(51, 51, 51, 0.15)" stroke-width="1.5"></path>
        <path d="M350.24 645.26L510.11 535.32" stroke="rgba(51, 51, 51, 0.15)" stroke-width="1.5"></path>
        <path d="M350.24 645.26L227 493.72" stroke="rgba(51, 51, 51, 0.15)" stroke-width="1.5"></path>
        <path d="M350.24 645.26L378.82 382" stroke="rgba(51, 51, 51, 0.15)" stroke-width="1.5"></path>
        <path d="M553.3 390.13L553.3 390.13" stroke="rgba(51, 51, 51, 0.15)" stroke-width="1.5"></path>
        <path d="M553.3 390.13L674.89 402.7" stroke="rgba(51, 51, 51, 0.15)" stroke-width="1.5"></path>
        <path d="M553.3 390.13L510.11 535.32" stroke="rgba(51, 51, 51, 0.15)" stroke-width="1.5"></path>
        <path d="M553.3 390.13L378.82 382" stroke="rgba(51, 51, 51, 0.15)" stroke-width="1.5"></path>
        <path d="M553.3 390.13L351.45 513.83" stroke="rgba(51, 51, 51, 0.15)" stroke-width="1.5"></path>
        <path d="M510.11 535.32L510.11 535.32" stroke="rgba(51, 51, 51, 0.15)" stroke-width="1.5"></path>
        <path d="M510.11 535.32L516.21 666.62" stroke="rgba(51, 51, 51, 0.15)" stroke-width="1.5"></path>
        <path d="M510.11 535.32L654.18 660.4" stroke="rgba(51, 51, 51, 0.15)" stroke-width="1.5"></path>
        <path d="M516.21 666.62L516.21 666.62" stroke="rgba(51, 51, 51, 0.15)" stroke-width="1.5"></path>
        <path d="M516.21 666.62L654.18 660.4" stroke="rgba(51, 51, 51, 0.15)" stroke-width="1.5"></path>
        <path d="M674.89 402.7L674.89 402.7" stroke="rgba(51, 51, 51, 0.15)" stroke-width="1.5"></path>
        <path d="M674.89 402.7L806.04 402.44" stroke="rgba(51, 51, 51, 0.15)" stroke-width="1.5"></path>
        <path d="M674.89 402.7L510.11 535.32" stroke="rgba(51, 51, 51, 0.15)" stroke-width="1.5"></path>
        <path d="M654.18 660.4L654.18 660.4" stroke="rgba(51, 51, 51, 0.15)" stroke-width="1.5"></path>
        <path d="M849.95 197.9L849.95 197.9" stroke="rgba(51, 51, 51, 0.15)" stroke-width="1.5"></path>
        <path d="M849.95 197.9L987.17 249.85" stroke="rgba(51, 51, 51, 0.15)" stroke-width="1.5"></path>
        <path d="M849.95 197.9L974.63 53.39" stroke="rgba(51, 51, 51, 0.15)" stroke-width="1.5"></path>
        <path d="M849.95 197.9L955.03 374.76" stroke="rgba(51, 51, 51, 0.15)" stroke-width="1.5"></path>
        <path d="M806.04 402.44L806.04 402.44" stroke="rgba(51, 51, 51, 0.15)" stroke-width="1.5"></path>
        <path d="M806.04 402.44L955.03 374.76" stroke="rgba(51, 51, 51, 0.15)" stroke-width="1.5"></path>
        <path d="M806.04 402.44L820.22 560.8" stroke="rgba(51, 51, 51, 0.15)" stroke-width="1.5"></path>
        <path d="M806.04 402.44L849.95 197.9" stroke="rgba(51, 51, 51, 0.15)" stroke-width="1.5"></path>
        <path d="M806.04 402.44L987.17 249.85" stroke="rgba(51, 51, 51, 0.15)" stroke-width="1.5"></path>
        <path d="M806.04 402.44L1002.33 542.86" stroke="rgba(51, 51, 51, 0.15)" stroke-width="1.5"></path>
        <path d="M820.22 560.8L820.22 560.8" stroke="rgba(51, 51, 51, 0.15)" stroke-width="1.5"></path>
        <path d="M820.22 560.8L847 676.92" stroke="rgba(51, 51, 51, 0.15)" stroke-width="1.5"></path>
        <path d="M820.22 560.8L1002.33 542.86" stroke="rgba(51, 51, 51, 0.15)" stroke-width="1.5"></path>
        <path d="M847 676.92L847 676.92" stroke="rgba(51, 51, 51, 0.15)" stroke-width="1.5"></path>
        <path d="M847 676.92L984.85 646.09" stroke="rgba(51, 51, 51, 0.15)" stroke-width="1.5"></path>
        <path d="M847 676.92L654.18 660.4" stroke="rgba(51, 51, 51, 0.15)" stroke-width="1.5"></path>
        <path d="M847 676.92L1002.33 542.86" stroke="rgba(51, 51, 51, 0.15)" stroke-width="1.5"></path>
        <path d="M847 676.92L1122.53 662.78" stroke="rgba(51, 51, 51, 0.15)" stroke-width="1.5"></path>
        <path d="M847 676.92L806.04 402.44" stroke="rgba(51, 51, 51, 0.15)" stroke-width="1.5"></path>
        <path d="M974.63 53.39L974.63 53.39" stroke="rgba(51, 51, 51, 0.15)" stroke-width="1.5"></path>
        <path d="M974.63 53.39L1090.88 47.51" stroke="rgba(51, 51, 51, 0.15)" stroke-width="1.5"></path>
        <path d="M974.63 53.39L1104.66 -38.3" stroke="rgba(51, 51, 51, 0.15)" stroke-width="1.5"></path>
        <path d="M987.17 249.85L987.17 249.85" stroke="rgba(51, 51, 51, 0.15)" stroke-width="1.5"></path>
        <path d="M987.17 249.85L955.03 374.76" stroke="rgba(51, 51, 51, 0.15)" stroke-width="1.5"></path>
        <path d="M987.17 249.85L1142 250.3" stroke="rgba(51, 51, 51, 0.15)" stroke-width="1.5"></path>
        <path d="M955.03 374.76L955.03 374.76" stroke="rgba(51, 51, 51, 0.15)" stroke-width="1.5"></path>
        <path d="M955.03 374.76L1002.33 542.86" stroke="rgba(51, 51, 51, 0.15)" stroke-width="1.5"></path>
        <path d="M1002.33 542.86L1002.33 542.86" stroke="rgba(51, 51, 51, 0.15)" stroke-width="1.5"></path>
        <path d="M1002.33 542.86L984.85 646.09" stroke="rgba(51, 51, 51, 0.15)" stroke-width="1.5"></path>
        <path d="M1002.33 542.86L1102.64 502.64" stroke="rgba(51, 51, 51, 0.15)" stroke-width="1.5"></path>
        <path d="M984.85 646.09L984.85 646.09" stroke="rgba(51, 51, 51, 0.15)" stroke-width="1.5"></path>
        <path d="M984.85 646.09L1122.53 662.78" stroke="rgba(51, 51, 51, 0.15)" stroke-width="1.5"></path>
        <path d="M984.85 646.09L820.22 560.8" stroke="rgba(51, 51, 51, 0.15)" stroke-width="1.5"></path>
        <path d="M984.85 646.09L1102.64 502.64" stroke="rgba(51, 51, 51, 0.15)" stroke-width="1.5"></path>
        <path d="M984.85 646.09L955.03 374.76" stroke="rgba(51, 51, 51, 0.15)" stroke-width="1.5"></path>
        <path d="M1104.66 -38.3L1104.66 -38.3" stroke="rgba(51, 51, 51, 0.15)" stroke-width="1.5"></path>
        <path d="M1104.66 -38.3L1090.88 47.51" stroke="rgba(51, 51, 51, 0.15)" stroke-width="1.5"></path>
        <path d="M1104.66 -38.3L1238.3 48.2" stroke="rgba(51, 51, 51, 0.15)" stroke-width="1.5"></path>
        <path d="M1104.66 -38.3L1275.8 -103.39" stroke="rgba(51, 51, 51, 0.15)" stroke-width="1.5"></path>
        <path d="M1090.88 47.51L1090.88 47.51" stroke="rgba(51, 51, 51, 0.15)" stroke-width="1.5"></path>
        <path d="M1090.88 47.51L1238.3 48.2" stroke="rgba(51, 51, 51, 0.15)" stroke-width="1.5"></path>
        <path d="M1090.88 47.51L1142 250.3" stroke="rgba(51, 51, 51, 0.15)" stroke-width="1.5"></path>
        <path d="M1090.88 47.51L987.17 249.85" stroke="rgba(51, 51, 51, 0.15)" stroke-width="1.5"></path>
        <path d="M1090.88 47.51L1275.8 -103.39" stroke="rgba(51, 51, 51, 0.15)" stroke-width="1.5"></path>
        <path d="M1142 250.3L1142 250.3" stroke="rgba(51, 51, 51, 0.15)" stroke-width="1.5"></path>
        <path d="M1142 250.3L1162.28 338.55" stroke="rgba(51, 51, 51, 0.15)" stroke-width="1.5"></path>
        <path d="M1142 250.3L1297.67 198.26" stroke="rgba(51, 51, 51, 0.15)" stroke-width="1.5"></path>
        <path d="M1142 250.3L1250.39 407.79" stroke="rgba(51, 51, 51, 0.15)" stroke-width="1.5"></path>
        <path d="M1142 250.3L1238.3 48.2" stroke="rgba(51, 51, 51, 0.15)" stroke-width="1.5"></path>
        <path d="M1162.28 338.55L1162.28 338.55" stroke="rgba(51, 51, 51, 0.15)" stroke-width="1.5"></path>
        <path d="M1162.28 338.55L1250.39 407.79" stroke="rgba(51, 51, 51, 0.15)" stroke-width="1.5"></path>
        <path d="M1162.28 338.55L1102.64 502.64" stroke="rgba(51, 51, 51, 0.15)" stroke-width="1.5"></path>
        <path d="M1102.64 502.64L1102.64 502.64" stroke="rgba(51, 51, 51, 0.15)" stroke-width="1.5"></path>
        <path d="M1102.64 502.64L1247.81 541.39" stroke="rgba(51, 51, 51, 0.15)" stroke-width="1.5"></path>
        <path d="M1102.64 502.64L1122.53 662.78" stroke="rgba(51, 51, 51, 0.15)" stroke-width="1.5"></path>
        <path d="M1122.53 662.78L1122.53 662.78" stroke="rgba(51, 51, 51, 0.15)" stroke-width="1.5"></path>
        <path d="M1122.53 662.78L1288.7 691.46" stroke="rgba(51, 51, 51, 0.15)" stroke-width="1.5"></path>
        <path d="M1122.53 662.78L1002.33 542.86" stroke="rgba(51, 51, 51, 0.15)" stroke-width="1.5"></path>
        <path d="M1122.53 662.78L1247.81 541.39" stroke="rgba(51, 51, 51, 0.15)" stroke-width="1.5"></path>
        <path d="M1275.8 -103.39L1275.8 -103.39" stroke="rgba(51, 51, 51, 0.15)" stroke-width="1.5"></path>
        <path d="M1275.8 -103.39L1238.3 48.2" stroke="rgba(51, 51, 51, 0.15)" stroke-width="1.5"></path>
        <path d="M1275.8 -103.39L1450.4 -61.61" stroke="rgba(51, 51, 51, 0.15)" stroke-width="1.5"></path>
        <path d="M1275.8 -103.39L1422.26 76.82" stroke="rgba(51, 51, 51, 0.15)" stroke-width="1.5"></path>
        <path d="M1238.3 48.2L1238.3 48.2" stroke="rgba(51, 51, 51, 0.15)" stroke-width="1.5"></path>
        <path d="M1297.67 198.26L1297.67 198.26" stroke="rgba(51, 51, 51, 0.15)" stroke-width="1.5"></path>
        <path d="M1297.67 198.26L1425.3 242.63" stroke="rgba(51, 51, 51, 0.15)" stroke-width="1.5"></path>
        <path d="M1297.67 198.26L1238.3 48.2" stroke="rgba(51, 51, 51, 0.15)" stroke-width="1.5"></path>
        <path d="M1250.39 407.79L1250.39 407.79" stroke="rgba(51, 51, 51, 0.15)" stroke-width="1.5"></path>
        <path d="M1250.39 407.79L1247.81 541.39" stroke="rgba(51, 51, 51, 0.15)" stroke-width="1.5"></path>
        <path d="M1250.39 407.79L1406.68 372.62" stroke="rgba(51, 51, 51, 0.15)" stroke-width="1.5"></path>
        <path d="M1250.39 407.79L1102.64 502.64" stroke="rgba(51, 51, 51, 0.15)" stroke-width="1.5"></path>
        <path d="M1247.81 541.39L1247.81 541.39" stroke="rgba(51, 51, 51, 0.15)" stroke-width="1.5"></path>
        <path d="M1247.81 541.39L1288.7 691.46" stroke="rgba(51, 51, 51, 0.15)" stroke-width="1.5"></path>
        <path d="M1288.7 691.46L1288.7 691.46" stroke="rgba(51, 51, 51, 0.15)" stroke-width="1.5"></path>
        <path d="M1288.7 691.46L1410.02 710.89" stroke="rgba(51, 51, 51, 0.15)" stroke-width="1.5"></path>
        <path d="M1288.7 691.46L1429.69 500.11" stroke="rgba(51, 51, 51, 0.15)" stroke-width="1.5"></path>
        <path d="M1450.4 -61.61L1450.4 -61.61" stroke="rgba(51, 51, 51, 0.15)" stroke-width="1.5"></path>
        <path d="M1450.4 -61.61L1422.26 76.82" stroke="rgba(51, 51, 51, 0.15)" stroke-width="1.5"></path>
        <path d="M1450.4 -61.61L1565.78 56.51" stroke="rgba(51, 51, 51, 0.15)" stroke-width="1.5"></path>
        <path d="M1422.26 76.82L1422.26 76.82" stroke="rgba(51, 51, 51, 0.15)" stroke-width="1.5"></path>
        <path d="M1422.26 76.82L1565.78 56.51" stroke="rgba(51, 51, 51, 0.15)" stroke-width="1.5"></path>
        <path d="M1422.26 76.82L1425.3 242.63" stroke="rgba(51, 51, 51, 0.15)" stroke-width="1.5"></path>
        <path d="M1425.3 242.63L1425.3 242.63" stroke="rgba(51, 51, 51, 0.15)" stroke-width="1.5"></path>
        <path d="M1425.3 242.63L1406.68 372.62" stroke="rgba(51, 51, 51, 0.15)" stroke-width="1.5"></path>
        <path d="M1425.3 242.63L1586.77 207.36" stroke="rgba(51, 51, 51, 0.15)" stroke-width="1.5"></path>
        <path d="M1425.3 242.63L1579.82 360.97" stroke="rgba(51, 51, 51, 0.15)" stroke-width="1.5"></path>
        <path d="M1425.3 242.63L1565.78 56.51" stroke="rgba(51, 51, 51, 0.15)" stroke-width="1.5"></path>
        <path d="M1406.68 372.62L1406.68 372.62" stroke="rgba(51, 51, 51, 0.15)" stroke-width="1.5"></path>
        <path d="M1406.68 372.62L1429.69 500.11" stroke="rgba(51, 51, 51, 0.15)" stroke-width="1.5"></path>
        <path d="M1429.69 500.11L1429.69 500.11" stroke="rgba(51, 51, 51, 0.15)" stroke-width="1.5"></path>
        <path d="M1429.69 500.11L1541.32 496.21" stroke="rgba(51, 51, 51, 0.15)" stroke-width="1.5"></path>
        <path d="M1429.69 500.11L1247.81 541.39" stroke="rgba(51, 51, 51, 0.15)" stroke-width="1.5"></path>
        <path d="M1410.02 710.89L1410.02 710.89" stroke="rgba(51, 51, 51, 0.15)" stroke-width="1.5"></path>
        <path d="M1410.02 710.89L1604.25 665.32" stroke="rgba(51, 51, 51, 0.15)" stroke-width="1.5"></path>
        <path d="M1410.02 710.89L1429.69 500.11" stroke="rgba(51, 51, 51, 0.15)" stroke-width="1.5"></path>
        <path d="M1410.02 710.89L1247.81 541.39" stroke="rgba(51, 51, 51, 0.15)" stroke-width="1.5"></path>
        <path d="M1410.02 710.89L1541.32 496.21" stroke="rgba(51, 51, 51, 0.15)" stroke-width="1.5"></path>
        <path d="M1410.02 710.89L1122.53 662.78" stroke="rgba(51, 51, 51, 0.15)" stroke-width="1.5"></path>
        <path d="M1565.78 56.51L1565.78 56.51" stroke="rgba(51, 51, 51, 0.15)" stroke-width="1.5"></path>
        <path d="M1565.78 56.51L1586.77 207.36" stroke="rgba(51, 51, 51, 0.15)" stroke-width="1.5"></path>
        <path d="M1565.78 56.51L1297.67 198.26" stroke="rgba(51, 51, 51, 0.15)" stroke-width="1.5"></path>
        <path d="M1586.77 207.36L1586.77 207.36" stroke="rgba(51, 51, 51, 0.15)" stroke-width="1.5"></path>
        <path d="M1586.77 207.36L1579.82 360.97" stroke="rgba(51, 51, 51, 0.15)" stroke-width="1.5"></path>
        <path d="M1579.82 360.97L1579.82 360.97" stroke="rgba(51, 51, 51, 0.15)" stroke-width="1.5"></path>
        <path d="M1579.82 360.97L1541.32 496.21" stroke="rgba(51, 51, 51, 0.15)" stroke-width="1.5"></path>
        <path d="M1541.32 496.21L1541.32 496.21" stroke="rgba(51, 51, 51, 0.15)" stroke-width="1.5"></path>
        <path d="M1541.32 496.21L1604.25 665.32" stroke="rgba(51, 51, 51, 0.15)" stroke-width="1.5"></path>
        <path d="M1541.32 496.21L1406.68 372.62" stroke="rgba(51, 51, 51, 0.15)" stroke-width="1.5"></path>
        <path d="M1604.25 665.32L1604.25 665.32" stroke="rgba(51, 51, 51, 0.15)" stroke-width="1.5"></path>
        <path d="M1604.25 665.32L1429.69 500.11" stroke="rgba(51, 51, 51, 0.15)" stroke-width="1.5"></path>
        <path d="M1604.25 665.32L1579.82 360.97" stroke="rgba(51, 51, 51, 0.15)" stroke-width="1.5"></path>
        <path d="M1604.25 665.32L1288.7 691.46" stroke="rgba(51, 51, 51, 0.15)" stroke-width="1.5"></path>
        <circle r="5" cx="-79.9" cy="378.15" fill="rgba(51, 51, 51, 0.15)"></circle>
        <circle r="5" cx="-75.08" cy="489.51" fill="rgba(51, 51, 51, 0.15)"></circle>
        <circle r="5" cx="-90.7" cy="646.62" fill="rgba(51, 51, 51, 0.15)"></circle>
        <circle r="5" cx="69.57" cy="410.6" fill="rgba(51, 51, 51, 0.15)"></circle>
        <circle r="5" cx="45.13" cy="518.11" fill="rgba(51, 51, 51, 0.15)"></circle>
        <circle r="5" cx="49.67" cy="681.48" fill="rgba(51, 51, 51, 0.15)"></circle>
        <circle r="5" cx="239.66" cy="389.41" fill="rgba(51, 51, 51, 0.15)"></circle>
        <circle r="5" cx="227" cy="493.72" fill="rgba(51, 51, 51, 0.15)"></circle>
        <circle r="5" cx="252.11" cy="682.96" fill="rgba(51, 51, 51, 0.15)"></circle>
        <circle r="5" cx="378.82" cy="382" fill="rgba(51, 51, 51, 0.15)"></circle>
        <circle r="5" cx="351.45" cy="513.83" fill="rgba(51, 51, 51, 0.15)"></circle>
        <circle r="5" cx="350.24" cy="645.26" fill="rgba(51, 51, 51, 0.15)"></circle>
        <circle r="5" cx="553.3" cy="390.13" fill="rgba(51, 51, 51, 0.15)"></circle>
        <circle r="5" cx="510.11" cy="535.32" fill="rgba(51, 51, 51, 0.15)"></circle>
        <circle r="5" cx="516.21" cy="666.62" fill="rgba(51, 51, 51, 0.15)"></circle>
        <circle r="5" cx="674.89" cy="402.7" fill="rgba(51, 51, 51, 0.15)"></circle>
        <circle r="5" cx="654.18" cy="660.4" fill="rgba(51, 51, 51, 0.15)"></circle>
        <circle r="5" cx="849.95" cy="197.9" fill="rgba(51, 51, 51, 0.15)"></circle>
        <circle r="5" cx="806.04" cy="402.44" fill="rgba(51, 51, 51, 0.15)"></circle>
        <circle r="5" cx="820.22" cy="560.8" fill="rgba(51, 51, 51, 0.15)"></circle>
        <circle r="5" cx="847" cy="676.92" fill="rgba(51, 51, 51, 0.15)"></circle>
        <circle r="5" cx="974.63" cy="53.39" fill="rgba(51, 51, 51, 0.15)"></circle>
        <circle r="5" cx="987.17" cy="249.85" fill="rgba(51, 51, 51, 0.15)"></circle>
        <circle r="5" cx="955.03" cy="374.76" fill="rgba(51, 51, 51, 0.15)"></circle>
        <circle r="5" cx="1002.33" cy="542.86" fill="rgba(51, 51, 51, 0.15)"></circle>
        <circle r="5" cx="984.85" cy="646.09" fill="rgba(51, 51, 51, 0.15)"></circle>
        <circle r="5" cx="1104.66" cy="-38.3" fill="rgba(51, 51, 51, 0.15)"></circle>
        <circle r="5" cx="1090.88" cy="47.51" fill="rgba(51, 51, 51, 0.15)"></circle>
        <circle r="5" cx="1142" cy="250.3" fill="rgba(51, 51, 51, 0.15)"></circle>
        <circle r="5" cx="1162.28" cy="338.55" fill="rgba(51, 51, 51, 0.15)"></circle>
        <circle r="5" cx="1102.64" cy="502.64" fill="rgba(51, 51, 51, 0.15)"></circle>
        <circle r="5" cx="1122.53" cy="662.78" fill="rgba(51, 51, 51, 0.15)"></circle>
        <circle r="5" cx="1275.8" cy="-103.39" fill="rgba(51, 51, 51, 0.15)"></circle>
        <circle r="5" cx="1238.3" cy="48.2" fill="rgba(51, 51, 51, 0.15)"></circle>
        <circle r="5" cx="1297.67" cy="198.26" fill="rgba(51, 51, 51, 0.15)"></circle>
        <circle r="5" cx="1250.39" cy="407.79" fill="rgba(51, 51, 51, 0.15)"></circle>
        <circle r="5" cx="1247.81" cy="541.39" fill="rgba(51, 51, 51, 0.15)"></circle>
        <circle r="5" cx="1288.7" cy="691.46" fill="rgba(51, 51, 51, 0.15)"></circle>
        <circle r="5" cx="1450.4" cy="-61.61" fill="rgba(51, 51, 51, 0.15)"></circle>
        <circle r="5" cx="1422.26" cy="76.82" fill="rgba(51, 51, 51, 0.15)"></circle>
        <circle r="5" cx="1425.3" cy="242.63" fill="rgba(51, 51, 51, 0.15)"></circle>
        <circle r="5" cx="1406.68" cy="372.62" fill="rgba(51, 51, 51, 0.15)"></circle>
        <circle r="5" cx="1429.69" cy="500.11" fill="rgba(51, 51, 51, 0.15)"></circle>
        <circle r="5" cx="1410.02" cy="710.89" fill="rgba(51, 51, 51, 0.15)"></circle>
        <circle r="5" cx="1565.78" cy="56.51" fill="rgba(51, 51, 51, 0.15)"></circle>
        <circle r="5" cx="1586.77" cy="207.36" fill="rgba(51, 51, 51, 0.15)"></circle>
        <circle r="5" cx="1579.82" cy="360.97" fill="rgba(51, 51, 51, 0.15)"></circle>
        <circle r="5" cx="1541.32" cy="496.21" fill="rgba(51, 51, 51, 0.15)"></circle>
        <circle r="5" cx="1604.25" cy="665.32" fill="rgba(51, 51, 51, 0.15)"></circle>
        <path d="M40.86 488.94L40.86 488.94" stroke="hsla(0, 0%, 26%, 0.15)" stroke-width="1.5"></path>
        <path d="M40.86 488.94L-41.8 551.6" stroke="hsla(0, 0%, 26%, 0.15)" stroke-width="1.5"></path>
        <path d="M40.86 488.94L-40.4 637.87" stroke="hsla(0, 0%, 26%, 0.15)" stroke-width="1.5"></path>
        <path d="M58.66 703.95L58.66 703.95" stroke="hsla(0, 0%, 26%, 0.15)" stroke-width="1.5"></path>
        <path d="M58.66 703.95L-40.4 637.87" stroke="hsla(0, 0%, 26%, 0.15)" stroke-width="1.5"></path>
        <path d="M58.66 703.95L212.97 659.83" stroke="hsla(0, 0%, 26%, 0.15)" stroke-width="1.5"></path>
        <path d="M58.66 703.95L-41.8 551.6" stroke="hsla(0, 0%, 26%, 0.15)" stroke-width="1.5"></path>
        <path d="M58.66 703.95L40.86 488.94" stroke="hsla(0, 0%, 26%, 0.15)" stroke-width="1.5"></path>
        <path d="M216.41 499.41L216.41 499.41" stroke="hsla(0, 0%, 26%, 0.15)" stroke-width="1.5"></path>
        <path d="M216.41 499.41L369.62 509.01" stroke="hsla(0, 0%, 26%, 0.15)" stroke-width="1.5"></path>
        <path d="M216.41 499.41L212.97 659.83" stroke="hsla(0, 0%, 26%, 0.15)" stroke-width="1.5"></path>
        <path d="M216.41 499.41L40.86 488.94" stroke="hsla(0, 0%, 26%, 0.15)" stroke-width="1.5"></path>
        <path d="M212.97 659.83L212.97 659.83" stroke="hsla(0, 0%, 26%, 0.15)" stroke-width="1.5"></path>
        <path d="M212.97 659.83L369.62 509.01" stroke="hsla(0, 0%, 26%, 0.15)" stroke-width="1.5"></path>
        <path d="M212.97 659.83L40.86 488.94" stroke="hsla(0, 0%, 26%, 0.15)" stroke-width="1.5"></path>
        <path d="M369.62 509.01L369.62 509.01" stroke="hsla(0, 0%, 26%, 0.15)" stroke-width="1.5"></path>
        <path d="M369.62 509.01L492.54 499.8" stroke="hsla(0, 0%, 26%, 0.15)" stroke-width="1.5"></path>
        <path d="M1293.06 -86.98L1293.06 -86.98" stroke="hsla(0, 0%, 26%, 0.15)" stroke-width="1.5"></path>
        <path d="M1293.06 -86.98L1160.93 60.9" stroke="hsla(0, 0%, 26%, 0.15)" stroke-width="1.5"></path>
        <path d="M1293.06 -86.98L1440.54 61.84" stroke="hsla(0, 0%, 26%, 0.15)" stroke-width="1.5"></path>
        <path d="M1293.06 -86.98L1573.08 -88.97" stroke="hsla(0, 0%, 26%, 0.15)" stroke-width="1.5"></path>
        <path d="M1293.06 -86.98L1276.39 215.66" stroke="hsla(0, 0%, 26%, 0.15)" stroke-width="1.5"></path>
        <path d="M1308.25 392.94L1308.25 392.94" stroke="hsla(0, 0%, 26%, 0.15)" stroke-width="1.5"></path>
        <path d="M1308.25 392.94L1434.26 410.95" stroke="hsla(0, 0%, 26%, 0.15)" stroke-width="1.5"></path>
        <path d="M1308.25 392.94L1160.04 360.66" stroke="hsla(0, 0%, 26%, 0.15)" stroke-width="1.5"></path>
        <path d="M1308.25 392.94L1286.86 544.79" stroke="hsla(0, 0%, 26%, 0.15)" stroke-width="1.5"></path>
        <path d="M1308.25 392.94L1276.39 215.66" stroke="hsla(0, 0%, 26%, 0.15)" stroke-width="1.5"></path>
        <path d="M1429.43 653.36L1429.43 653.36" stroke="hsla(0, 0%, 26%, 0.15)" stroke-width="1.5"></path>
        <path d="M1429.43 653.36L1457.76 557.33" stroke="hsla(0, 0%, 26%, 0.15)" stroke-width="1.5"></path>
        <path d="M1429.43 653.36L1274.28 693.6" stroke="hsla(0, 0%, 26%, 0.15)" stroke-width="1.5"></path>
        <path d="M1429.43 653.36L1286.86 544.79" stroke="hsla(0, 0%, 26%, 0.15)" stroke-width="1.5"></path>
        <path d="M1429.43 653.36L1606.86 692.58" stroke="hsla(0, 0%, 26%, 0.15)" stroke-width="1.5"></path>
        <path d="M1562.61 73.25L1562.61 73.25" stroke="hsla(0, 0%, 26%, 0.15)" stroke-width="1.5"></path>
        <path d="M1562.61 73.25L1440.54 61.84" stroke="hsla(0, 0%, 26%, 0.15)" stroke-width="1.5"></path>
        <path d="M1562.61 73.25L1597.02 231.87" stroke="hsla(0, 0%, 26%, 0.15)" stroke-width="1.5"></path>
        <path d="M1562.61 73.25L1573.08 -88.97" stroke="hsla(0, 0%, 26%, 0.15)" stroke-width="1.5"></path>
        <path d="M1562.61 73.25L1425.76 191.15" stroke="hsla(0, 0%, 26%, 0.15)" stroke-width="1.5"></path>
        <path d="M1562.61 73.25L1572.07 377.51" stroke="hsla(0, 0%, 26%, 0.15)" stroke-width="1.5"></path>
        <path d="M1572.07 377.51L1572.07 377.51" stroke="hsla(0, 0%, 26%, 0.15)" stroke-width="1.5"></path>
        <path d="M1572.07 377.51L1434.26 410.95" stroke="hsla(0, 0%, 26%, 0.15)" stroke-width="1.5"></path>
        <path d="M1572.07 377.51L1597.02 231.87" stroke="hsla(0, 0%, 26%, 0.15)" stroke-width="1.5"></path>
        <path d="M1572.07 377.51L1577.8 531.75" stroke="hsla(0, 0%, 26%, 0.15)" stroke-width="1.5"></path>
        <path d="M1572.07 377.51L1457.76 557.33" stroke="hsla(0, 0%, 26%, 0.15)" stroke-width="1.5"></path>
        <path d="M1572.07 377.51L1425.76 191.15" stroke="hsla(0, 0%, 26%, 0.15)" stroke-width="1.5"></path>
        <path d="M-41.8 551.6L-41.8 551.6" stroke="hsla(0, 0%, 26%, 0.15)" stroke-width="1.5"></path>
        <path d="M-41.8 551.6L-40.4 637.87" stroke="hsla(0, 0%, 26%, 0.15)" stroke-width="1.5"></path>
        <path d="M-41.8 551.6L216.41 499.41" stroke="hsla(0, 0%, 26%, 0.15)" stroke-width="1.5"></path>
        <path d="M-41.8 551.6L212.97 659.83" stroke="hsla(0, 0%, 26%, 0.15)" stroke-width="1.5"></path>
        <path d="M-40.4 637.87L-40.4 637.87" stroke="hsla(0, 0%, 26%, 0.15)" stroke-width="1.5"></path>
        <path d="M-40.4 637.87L212.97 659.83" stroke="hsla(0, 0%, 26%, 0.15)" stroke-width="1.5"></path>
        <path d="M-40.4 637.87L216.41 499.41" stroke="hsla(0, 0%, 26%, 0.15)" stroke-width="1.5"></path>
        <path d="M492.54 499.8L492.54 499.8" stroke="hsla(0, 0%, 26%, 0.15)" stroke-width="1.5"></path>
        <path d="M492.54 499.8L522.47 666.4" stroke="hsla(0, 0%, 26%, 0.15)" stroke-width="1.5"></path>
        <path d="M492.54 499.8L683.55 398.49" stroke="hsla(0, 0%, 26%, 0.15)" stroke-width="1.5"></path>
        <path d="M522.47 666.4L522.47 666.4" stroke="hsla(0, 0%, 26%, 0.15)" stroke-width="1.5"></path>
        <path d="M522.47 666.4L712.35 655.68" stroke="hsla(0, 0%, 26%, 0.15)" stroke-width="1.5"></path>
        <path d="M522.47 666.4L369.62 509.01" stroke="hsla(0, 0%, 26%, 0.15)" stroke-width="1.5"></path>
        <path d="M683.55 398.49L683.55 398.49" stroke="hsla(0, 0%, 26%, 0.15)" stroke-width="1.5"></path>
        <path d="M683.55 398.49L712.35 655.68" stroke="hsla(0, 0%, 26%, 0.15)" stroke-width="1.5"></path>
        <path d="M683.55 398.49L957.82 392.83" stroke="hsla(0, 0%, 26%, 0.15)" stroke-width="1.5"></path>
        <path d="M712.35 655.68L712.35 655.68" stroke="hsla(0, 0%, 26%, 0.15)" stroke-width="1.5"></path>
        <path d="M712.35 655.68L846.01 673.39" stroke="hsla(0, 0%, 26%, 0.15)" stroke-width="1.5"></path>
        <path d="M846.01 673.39L846.01 673.39" stroke="hsla(0, 0%, 26%, 0.15)" stroke-width="1.5"></path>
        <path d="M846.01 673.39L994.34 672.81" stroke="hsla(0, 0%, 26%, 0.15)" stroke-width="1.5"></path>
        <path d="M846.01 673.39L943.53 529.69" stroke="hsla(0, 0%, 26%, 0.15)" stroke-width="1.5"></path>
        <path d="M966.2 261.96L966.2 261.96" stroke="hsla(0, 0%, 26%, 0.15)" stroke-width="1.5"></path>
        <path d="M966.2 261.96L957.82 392.83" stroke="hsla(0, 0%, 26%, 0.15)" stroke-width="1.5"></path>
        <path d="M966.2 261.96L1160.04 360.66" stroke="hsla(0, 0%, 26%, 0.15)" stroke-width="1.5"></path>
        <path d="M966.2 261.96L943.53 529.69" stroke="hsla(0, 0%, 26%, 0.15)" stroke-width="1.5"></path>
        <path d="M966.2 261.96L1114.72 496.83" stroke="hsla(0, 0%, 26%, 0.15)" stroke-width="1.5"></path>
        <path d="M957.82 392.83L957.82 392.83" stroke="hsla(0, 0%, 26%, 0.15)" stroke-width="1.5"></path>
        <path d="M957.82 392.83L943.53 529.69" stroke="hsla(0, 0%, 26%, 0.15)" stroke-width="1.5"></path>
        <path d="M957.82 392.83L1114.72 496.83" stroke="hsla(0, 0%, 26%, 0.15)" stroke-width="1.5"></path>
        <path d="M957.82 392.83L1160.04 360.66" stroke="hsla(0, 0%, 26%, 0.15)" stroke-width="1.5"></path>
        <path d="M943.53 529.69L943.53 529.69" stroke="hsla(0, 0%, 26%, 0.15)" stroke-width="1.5"></path>
        <path d="M943.53 529.69L994.34 672.81" stroke="hsla(0, 0%, 26%, 0.15)" stroke-width="1.5"></path>
        <path d="M994.34 672.81L994.34 672.81" stroke="hsla(0, 0%, 26%, 0.15)" stroke-width="1.5"></path>
        <path d="M994.34 672.81L1098.28 647.5" stroke="hsla(0, 0%, 26%, 0.15)" stroke-width="1.5"></path>
        <path d="M1160.93 60.9L1160.93 60.9" stroke="hsla(0, 0%, 26%, 0.15)" stroke-width="1.5"></path>
        <path d="M1160.93 60.9L1276.39 215.66" stroke="hsla(0, 0%, 26%, 0.15)" stroke-width="1.5"></path>
        <path d="M1160.93 60.9L1440.54 61.84" stroke="hsla(0, 0%, 26%, 0.15)" stroke-width="1.5"></path>
        <path d="M1160.93 60.9L966.2 261.96" stroke="hsla(0, 0%, 26%, 0.15)" stroke-width="1.5"></path>
        <path d="M1160.93 60.9L1425.76 191.15" stroke="hsla(0, 0%, 26%, 0.15)" stroke-width="1.5"></path>
        <path d="M1160.93 60.9L1160.04 360.66" stroke="hsla(0, 0%, 26%, 0.15)" stroke-width="1.5"></path>
        <path d="M1160.04 360.66L1160.04 360.66" stroke="hsla(0, 0%, 26%, 0.15)" stroke-width="1.5"></path>
        <path d="M1160.04 360.66L1114.72 496.83" stroke="hsla(0, 0%, 26%, 0.15)" stroke-width="1.5"></path>
        <path d="M1160.04 360.66L1276.39 215.66" stroke="hsla(0, 0%, 26%, 0.15)" stroke-width="1.5"></path>
        <path d="M1160.04 360.66L1286.86 544.79" stroke="hsla(0, 0%, 26%, 0.15)" stroke-width="1.5"></path>
        <path d="M1114.72 496.83L1114.72 496.83" stroke="hsla(0, 0%, 26%, 0.15)" stroke-width="1.5"></path>
        <path d="M1114.72 496.83L1098.28 647.5" stroke="hsla(0, 0%, 26%, 0.15)" stroke-width="1.5"></path>
        <path d="M1114.72 496.83L943.53 529.69" stroke="hsla(0, 0%, 26%, 0.15)" stroke-width="1.5"></path>
        <path d="M1114.72 496.83L1286.86 544.79" stroke="hsla(0, 0%, 26%, 0.15)" stroke-width="1.5"></path>
        <path d="M1098.28 647.5L1098.28 647.5" stroke="hsla(0, 0%, 26%, 0.15)" stroke-width="1.5"></path>
        <path d="M1098.28 647.5L1274.28 693.6" stroke="hsla(0, 0%, 26%, 0.15)" stroke-width="1.5"></path>
        <path d="M1098.28 647.5L943.53 529.69" stroke="hsla(0, 0%, 26%, 0.15)" stroke-width="1.5"></path>
        <path d="M1098.28 647.5L1286.86 544.79" stroke="hsla(0, 0%, 26%, 0.15)" stroke-width="1.5"></path>
        <path d="M1098.28 647.5L846.01 673.39" stroke="hsla(0, 0%, 26%, 0.15)" stroke-width="1.5"></path>
        <path d="M1276.39 215.66L1276.39 215.66" stroke="hsla(0, 0%, 26%, 0.15)" stroke-width="1.5"></path>
        <path d="M1276.39 215.66L1425.76 191.15" stroke="hsla(0, 0%, 26%, 0.15)" stroke-width="1.5"></path>
        <path d="M1286.86 544.79L1286.86 544.79" stroke="hsla(0, 0%, 26%, 0.15)" stroke-width="1.5"></path>
        <path d="M1286.86 544.79L1274.28 693.6" stroke="hsla(0, 0%, 26%, 0.15)" stroke-width="1.5"></path>
        <path d="M1286.86 544.79L1457.76 557.33" stroke="hsla(0, 0%, 26%, 0.15)" stroke-width="1.5"></path>
        <path d="M1274.28 693.6L1274.28 693.6" stroke="hsla(0, 0%, 26%, 0.15)" stroke-width="1.5"></path>
        <path d="M1274.28 693.6L1457.76 557.33" stroke="hsla(0, 0%, 26%, 0.15)" stroke-width="1.5"></path>
        <path d="M1274.28 693.6L1114.72 496.83" stroke="hsla(0, 0%, 26%, 0.15)" stroke-width="1.5"></path>
        <path d="M1440.54 61.84L1440.54 61.84" stroke="hsla(0, 0%, 26%, 0.15)" stroke-width="1.5"></path>
        <path d="M1440.54 61.84L1425.76 191.15" stroke="hsla(0, 0%, 26%, 0.15)" stroke-width="1.5"></path>
        <path d="M1440.54 61.84L1573.08 -88.97" stroke="hsla(0, 0%, 26%, 0.15)" stroke-width="1.5"></path>
        <path d="M1440.54 61.84L1276.39 215.66" stroke="hsla(0, 0%, 26%, 0.15)" stroke-width="1.5"></path>
        <path d="M1425.76 191.15L1425.76 191.15" stroke="hsla(0, 0%, 26%, 0.15)" stroke-width="1.5"></path>
        <path d="M1425.76 191.15L1597.02 231.87" stroke="hsla(0, 0%, 26%, 0.15)" stroke-width="1.5"></path>
        <path d="M1434.26 410.95L1434.26 410.95" stroke="hsla(0, 0%, 26%, 0.15)" stroke-width="1.5"></path>
        <path d="M1434.26 410.95L1457.76 557.33" stroke="hsla(0, 0%, 26%, 0.15)" stroke-width="1.5"></path>
        <path d="M1434.26 410.95L1577.8 531.75" stroke="hsla(0, 0%, 26%, 0.15)" stroke-width="1.5"></path>
        <path d="M1434.26 410.95L1286.86 544.79" stroke="hsla(0, 0%, 26%, 0.15)" stroke-width="1.5"></path>
        <path d="M1457.76 557.33L1457.76 557.33" stroke="hsla(0, 0%, 26%, 0.15)" stroke-width="1.5"></path>
        <path d="M1457.76 557.33L1577.8 531.75" stroke="hsla(0, 0%, 26%, 0.15)" stroke-width="1.5"></path>
        <path d="M1457.76 557.33L1606.86 692.58" stroke="hsla(0, 0%, 26%, 0.15)" stroke-width="1.5"></path>
        <path d="M1573.08 -88.97L1573.08 -88.97" stroke="hsla(0, 0%, 26%, 0.15)" stroke-width="1.5"></path>
        <path d="M1573.08 -88.97L1425.76 191.15" stroke="hsla(0, 0%, 26%, 0.15)" stroke-width="1.5"></path>
        <path d="M1597.02 231.87L1597.02 231.87" stroke="hsla(0, 0%, 26%, 0.15)" stroke-width="1.5"></path>
        <path d="M1597.02 231.87L1440.54 61.84" stroke="hsla(0, 0%, 26%, 0.15)" stroke-width="1.5"></path>
        <path d="M1597.02 231.87L1434.26 410.95" stroke="hsla(0, 0%, 26%, 0.15)" stroke-width="1.5"></path>
        <path d="M1597.02 231.87L1577.8 531.75" stroke="hsla(0, 0%, 26%, 0.15)" stroke-width="1.5"></path>
        <path d="M1577.8 531.75L1577.8 531.75" stroke="hsla(0, 0%, 26%, 0.15)" stroke-width="1.5"></path>
        <path d="M1577.8 531.75L1606.86 692.58" stroke="hsla(0, 0%, 26%, 0.15)" stroke-width="1.5"></path>
        <path d="M1577.8 531.75L1429.43 653.36" stroke="hsla(0, 0%, 26%, 0.15)" stroke-width="1.5"></path>
        <path d="M1606.86 692.58L1606.86 692.58" stroke="hsla(0, 0%, 26%, 0.15)" stroke-width="1.5"></path>
        <path d="M1606.86 692.58L1572.07 377.51" stroke="hsla(0, 0%, 26%, 0.15)" stroke-width="1.5"></path>
        <path d="M1606.86 692.58L1434.26 410.95" stroke="hsla(0, 0%, 26%, 0.15)" stroke-width="1.5"></path>
        <path d="M1606.86 692.58L1274.28 693.6" stroke="hsla(0, 0%, 26%, 0.15)" stroke-width="1.5"></path>
        <circle r="25" cx="40.86" cy="488.94" fill="url(&quot;#SvgjsRadialGradient1001&quot;)"></circle>
        <circle r="25" cx="58.66" cy="703.95" fill="url(&quot;#SvgjsRadialGradient1001&quot;)"></circle>
        <circle r="25" cx="216.41" cy="499.41" fill="url(&quot;#SvgjsRadialGradient1001&quot;)"></circle>
        <circle r="25" cx="212.97" cy="659.83" fill="url(&quot;#SvgjsRadialGradient1001&quot;)"></circle>
        <circle r="25" cx="369.62" cy="509.01" fill="url(&quot;#SvgjsRadialGradient1001&quot;)"></circle>
        <circle r="25" cx="1293.06" cy="-86.98" fill="url(&quot;#SvgjsRadialGradient1001&quot;)"></circle>
        <circle r="25" cx="1308.25" cy="392.94" fill="url(&quot;#SvgjsRadialGradient1001&quot;)"></circle>
        <circle r="25" cx="1429.43" cy="653.36" fill="url(&quot;#SvgjsRadialGradient1001&quot;)"></circle>
        <circle r="25" cx="1562.61" cy="73.25" fill="url(&quot;#SvgjsRadialGradient1001&quot;)"></circle>
        <circle r="25" cx="1572.07" cy="377.51" fill="url(&quot;#SvgjsRadialGradient1001&quot;)"></circle>
        <circle r="5" cx="-41.8" cy="551.6" fill="rgba(240, 240, 240, 0.575)"></circle>
        <circle r="5" cx="-40.4" cy="637.87" fill="rgba(240, 240, 240, 0.575)"></circle>
        <circle r="5" cx="492.54" cy="499.8" fill="rgba(240, 240, 240, 0.575)"></circle>
        <circle r="5" cx="522.47" cy="666.4" fill="rgba(240, 240, 240, 0.575)"></circle>
        <circle r="5" cx="683.55" cy="398.49" fill="rgba(240, 240, 240, 0.575)"></circle>
        <circle r="5" cx="712.35" cy="655.68" fill="rgba(240, 240, 240, 0.575)"></circle>
        <circle r="5" cx="846.01" cy="673.39" fill="rgba(240, 240, 240, 0.575)"></circle>
        <circle r="5" cx="966.2" cy="261.96" fill="rgba(240, 240, 240, 0.575)"></circle>
        <circle r="5" cx="957.82" cy="392.83" fill="rgba(240, 240, 240, 0.575)"></circle>
        <circle r="5" cx="943.53" cy="529.69" fill="rgba(240, 240, 240, 0.575)"></circle>
        <circle r="5" cx="994.34" cy="672.81" fill="rgba(240, 240, 240, 0.575)"></circle>
        <circle r="5" cx="1160.93" cy="60.9" fill="rgba(240, 240, 240, 0.575)"></circle>
        <circle r="5" cx="1160.04" cy="360.66" fill="rgba(240, 240, 240, 0.575)"></circle>
        <circle r="5" cx="1114.72" cy="496.83" fill="rgba(240, 240, 240, 0.575)"></circle>
        <circle r="5" cx="1098.28" cy="647.5" fill="rgba(240, 240, 240, 0.575)"></circle>
        <circle r="5" cx="1276.39" cy="215.66" fill="rgba(240, 240, 240, 0.575)"></circle>
        <circle r="5" cx="1286.86" cy="544.79" fill="rgba(240, 240, 240, 0.575)"></circle>
        <circle r="5" cx="1274.28" cy="693.6" fill="rgba(240, 240, 240, 0.575)"></circle>
        <circle r="5" cx="1440.54" cy="61.84" fill="rgba(240, 240, 240, 0.575)"></circle>
        <circle r="5" cx="1425.76" cy="191.15" fill="rgba(240, 240, 240, 0.575)"></circle>
        <circle r="5" cx="1434.26" cy="410.95" fill="rgba(240, 240, 240, 0.575)"></circle>
        <circle r="5" cx="1457.76" cy="557.33" fill="rgba(240, 240, 240, 0.575)"></circle>
        <circle r="5" cx="1573.08" cy="-88.97" fill="rgba(240, 240, 240, 0.575)"></circle>
        <circle r="5" cx="1597.02" cy="231.87" fill="rgba(240, 240, 240, 0.575)"></circle>
        <circle r="5" cx="1577.8" cy="531.75" fill="rgba(240, 240, 240, 0.575)"></circle>
        <circle r="5" cx="1606.86" cy="692.58" fill="rgba(240, 240, 240, 0.575)"></circle>
    </g>
    <defs>
        <mask id="SvgjsMask1000">
            <rect width="1440" height="560" fill="#ffffff"></rect>
        </mask>
        <radialGradient id="SvgjsRadialGradient1001">
            <stop stop-color="#ffffff" offset="0.1"></stop>
            <stop stop-color="rgba(51, 51, 51, 0.15)" offset="0.2"></stop>
            <stop stop-color="rgba(51, 51, 51, 0)" offset="1"></stop>
        </radialGradient>
    </defs>
</svg>